<svg xmlns="http://www.w3.org/2000/svg" xmlns:xlink="http://www.w3.org/1999/xlink" width="72" height="28" viewBox="0 0 72 28" class="w-[50px] h-[30px] text-black"><defs><path id="path-1" d="M0 0.0497600729L19.3287714 0.0497600729 19.3287714 21.8826386 0 21.8826386z"></path><path id="path-3" d="M0.196454335 0.213654864L13.1386183 0.213654864 13.1386183 20.7660147 0.196454335 20.7660147z"></path></defs><g fill="none" fill-rule="evenodd" stroke="none" stroke-width="1"><g transform="translate(-70 -35)"><g transform="translate(70 30)"><g transform="translate(0 5)"><path fill="currentColor" d="M36.2466868 21.7341811L32.7579964 21.7341811 29.7194974 12.4776321 26.652788 21.7341811 23.1637058 21.7341811 18.3526511 7.21638601 22.0666333 7.21638601 24.9366532 16.3322746 27.9751522 7.21638601 31.4356322 7.21638601 34.474523 16.3604851 37.3719697 7.21638601 41.0859519 7.21638601z"></path><g transform="translate(0 .342)"><g><mask id="mask-2" fill="#fff"><use xlink:href="#path-1"></use></mask><path fill="currentColor" d="M8.79 17.249a2.701 2.701 0 01-2.122.976c-1.66 0-2.785-1.097-2.785-2.757 0-1.435.872-2.476 2.279-2.814l3.142 3.474.25.26-.764.86zM19.33 21.46l-5.004-5.503 2.847-3.174-1.256-3.48-3.8 4.212-4.66-5.11C6.36 7.168 5.824 6.21 5.824 5.339c0-1.153.788-1.885 1.913-1.885 1.239 0 2.054.985 2.139 2.391h3.601C13.308 2.272 11.001.05 7.625.05 4.305.05 1.97 2.244 1.97 5.283c0 1.491.562 2.954 1.8 4.586v.366C1.407 11.163 0 13.217 0 15.946c0 3.545 2.448 5.937 6.134 5.937 1.962 0 3.576-.697 4.68-1.909v.002l.992-1.1 2.318 2.585h5.205z" mask="url(#mask-2)"></path></g><g transform="translate(58.772 6.66)"><mask id="mask-4" fill="#fff"><use xlink:href="#path-3"></use></mask><path fill="currentColor" d="M9.425.214v8.074c0 1.576-1.21 2.898-2.757 2.898-1.576 0-2.758-1.294-2.758-2.898L3.914.214H.2l-.004 8.75c0 3.348 1.66 5.936 4.98 5.936 1.604 0 3.18-.788 4.249-2.026v4.6H.196l1.089 3.284c2.913-.013 9.375.008 11.854.008V.214H9.425z" mask="url(#mask-4)"></path></g><path fill="currentColor" d="M51.012 6.705c-1.66 0-3.151.76-4.249 2.026V1.136l-3.713 1.23v19.026h3.713v-8.075c0-1.604 1.21-2.898 2.758-2.898 1.52 0 2.757 1.294 2.757 2.898v8.075h3.714v-8.075c0-5.036-2.195-6.612-4.98-6.612"></path></g></g></g></g></g></svg>